<?xml version="1.0" encoding="UTF-8" standalone="no"?>
<svg
   xmlns:dc="http://purl.org/dc/elements/1.1/"
   xmlns:cc="http://creativecommons.org/ns#"
   xmlns:rdf="http://www.w3.org/1999/02/22-rdf-syntax-ns#"
   xmlns:svg="http://www.w3.org/2000/svg"
   xmlns="http://www.w3.org/2000/svg"
   id="svg4605"
   version="1.1"
   viewBox="0 0 29.104166 29.104164"
   height="110"
   width="110">
  <defs
     id="defs4599" />
  <metadata
     id="metadata4602">
    <rdf:RDF>
      <cc:Work
         rdf:about="">
        <dc:format>image/svg+xml</dc:format>
        <dc:type
           rdf:resource="http://purl.org/dc/dcmitype/StillImage" />
        <dc:title></dc:title>
      </cc:Work>
    </rdf:RDF>
  </metadata>
  <g
     transform="translate(-166.99114,-124.34099)"
     id="layer1">
    <g
       style="fill:#00a8e1;fill-opacity:1"
       transform="matrix(0.36318918,0,0,-0.36318918,187.87288,134.32161)"
       id="g48">
      <path
         id="path50"
         style="fill:#00a8e1;fill-opacity:1;fill-rule:nonzero;stroke:none"
         d="m 0,0 v 0 c -1.172,1.172 -3.072,1.172 -4.245,0 l -6.552,-6.778 c -1.173,-1.173 -3.074,-1.173 -4.245,0 L -25.3,3.486 c -0.563,0.563 -1.327,0.88 -2.123,0.88 h -7.906 c -1.657,0 -3.001,-1.344 -3.001,-3.002 0,-1.657 1.344,-3.001 3.001,-3.001 h 5.412 c 0.796,0 1.56,-0.316 2.123,-0.879 l 8.507,-8.507 c 1.172,-1.172 1.172,-3.073 0,-4.245 l -5.123,-4.898 c -0.563,-0.562 -1.326,-0.878 -2.122,-0.878 h -3.963 c -1.657,0 -3.001,-1.344 -3.001,-3.001 0,-1.658 1.344,-3.002 3.001,-3.002 h 6.449 c 0.796,0 1.56,0.317 2.122,0.879 l 6.882,6.656 c 1.172,1.172 3.072,1.172 4.244,0 l 9.149,-9.149 c 1.171,-1.172 3.072,-1.172 4.244,0 1.172,1.173 1.172,3.073 0,4.245 l -9.149,9.148 c -1.172,1.172 -1.172,3.073 0,4.245 L 0,-4.244 C 1.172,-3.072 1.172,-1.172 0,0" />
    </g>
    <g
       style="fill:#00a8e1;fill-opacity:1"
       transform="matrix(0.36318918,0,0,-0.36318918,181.54141,150.6713)"
       id="g52">
      <path
         id="path54"
         style="fill:#00a8e1;fill-opacity:1;fill-rule:nonzero;stroke:none"
         d="m 0,0 c -16.07,0 -29.86,11.98 -32.1,27.87 -0.2,1.39 -0.32,2.89 -0.32,4.43 v 0.13 c 0,1.72 0.13,3.42 0.39,5.06 0.21,1.34 0.5,2.64 0.86,3.88 C -27.22,55.2 -14.41,64.86 0,64.86 17.88,64.86 32.43,50.32 32.43,32.43 32.43,14.55 17.88,0 0,0 m 0,68.86 c -16.18,0 -30.58,-10.85 -35.01,-26.39 -0.41,-1.39 -0.73,-2.86 -0.969,-4.35 -0.291,-1.84 -0.441,-3.76 -0.441,-5.69 v -0.14 c 0.01,-1.74 0.13,-3.43 0.36,-4.99 C -33.55,9.46 -18.05,-4 0,-4 20.08,-4 36.43,12.35 36.43,32.43 36.43,52.52 20.08,68.86 0,68.86" />
    </g>
  </g>
</svg>
