<?xml version="1.0" encoding="utf-8"?>
<!-- Generator: Adobe Illustrator 21.1.0, SVG Export Plug-In . SVG Version: 6.00 Build 0)  -->
<svg version="1.1" id="Layer_1" xmlns="http://www.w3.org/2000/svg" xmlns:xlink="http://www.w3.org/1999/xlink" x="0px" y="0px"
	 viewBox="0 0 512 512" style="enable-background:new 0 0 512 512;" xml:space="preserve">
<style type="text/css">
	.st0{fill:#00A8E1;}
</style>
<g id="Icon">
	<g>
		<path class="st0" d="M256,176c-44,0-80,36-80,80c0,44,36,80,80,80c44,0,80-36,80-80C336,212,300,176,256,176z M446.9,234.7
			c-9.6-88.5-81.1-160-169.6-169.6V32h-42.7v33.1c-88.5,9.6-160,81.1-169.6,169.6H32v42.7h33.1c9.6,88.5,81.1,160,169.6,169.6V480
			h42.7v-33.1c88.5-9.6,160-81.1,169.6-169.6H480v-42.7L446.9,234.7L446.9,234.7z M256,405.3c-82.1,0-149.3-67.2-149.3-149.3
			c0-82.1,67.2-149.3,149.3-149.3c82.1,0,149.3,67.2,149.3,149.3S338.1,405.3,256,405.3z"/>
	</g>
</g>
</svg>
